<svg width="135" height="32" viewBox="0 0 135 32" fill="none" xmlns="http://www.w3.org/2000/svg">
<path d="M25.634 10.436C26.954 10.436 28.112 10.694 29.108 11.21C30.116 11.726 30.89 12.464 31.43 13.424C31.982 14.372 32.258 15.476 32.258 16.736C32.258 17.996 31.982 19.1 31.43 20.048C30.89 20.984 30.116 21.71 29.108 22.226C28.112 22.742 26.954 23 25.634 23H21.242V10.436H25.634ZM25.544 20.858C26.864 20.858 27.884 20.498 28.604 19.778C29.324 19.058 29.684 18.044 29.684 16.736C29.684 15.428 29.324 14.408 28.604 13.676C27.884 12.932 26.864 12.56 25.544 12.56H23.762V20.858H25.544ZM35.4223 11.84C34.9783 11.84 34.6063 11.702 34.3063 11.426C34.0183 11.138 33.8743 10.784 33.8743 10.364C33.8743 9.944 34.0183 9.596 34.3063 9.32C34.6063 9.032 34.9783 8.888 35.4223 8.888C35.8663 8.888 36.2323 9.032 36.5203 9.32C36.8203 9.596 36.9703 9.944 36.9703 10.364C36.9703 10.784 36.8203 11.138 36.5203 11.426C36.2323 11.702 35.8663 11.84 35.4223 11.84ZM36.6643 13.028V23H34.1443V13.028H36.6643ZM43.0601 12.866C43.8041 12.866 44.4581 13.016 45.0221 13.316C45.5861 13.604 46.0301 13.982 46.3541 14.45V13.028H48.8921V23.072C48.8921 23.996 48.7061 24.818 48.3341 25.538C47.9621 26.27 47.4041 26.846 46.6601 27.266C45.9161 27.698 45.0161 27.914 43.9601 27.914C42.5441 27.914 41.3801 27.584 40.4681 26.924C39.5681 26.264 39.0581 25.364 38.9381 24.224H41.4401C41.5721 24.68 41.8541 25.04 42.2861 25.304C42.7301 25.58 43.2641 25.718 43.8881 25.718C44.6201 25.718 45.2141 25.496 45.6701 25.052C46.1261 24.62 46.3541 23.96 46.3541 23.072V21.524C46.0301 21.992 45.5801 22.382 45.0041 22.694C44.4401 23.006 43.7921 23.162 43.0601 23.162C42.2201 23.162 41.4521 22.946 40.7561 22.514C40.0601 22.082 39.5081 21.476 39.1001 20.696C38.7041 19.904 38.5061 18.998 38.5061 17.978C38.5061 16.97 38.7041 16.076 39.1001 15.296C39.5081 14.516 40.0541 13.916 40.7381 13.496C41.4341 13.076 42.2081 12.866 43.0601 12.866ZM46.3541 18.014C46.3541 17.402 46.2341 16.88 45.9941 16.448C45.7541 16.004 45.4301 15.668 45.0221 15.44C44.6141 15.2 44.1761 15.08 43.7081 15.08C43.2401 15.08 42.8081 15.194 42.4121 15.422C42.0161 15.65 41.6921 15.986 41.4401 16.43C41.2001 16.862 41.0801 17.378 41.0801 17.978C41.0801 18.578 41.2001 19.106 41.4401 19.562C41.6921 20.006 42.0161 20.348 42.4121 20.588C42.8201 20.828 43.2521 20.948 43.7081 20.948C44.1761 20.948 44.6141 20.834 45.0221 20.606C45.4301 20.366 45.7541 20.03 45.9941 19.598C46.2341 19.154 46.3541 18.626 46.3541 18.014ZM52.6313 11.84C52.1873 11.84 51.8153 11.702 51.5153 11.426C51.2273 11.138 51.0833 10.784 51.0833 10.364C51.0833 9.944 51.2273 9.596 51.5153 9.32C51.8153 9.032 52.1873 8.888 52.6313 8.888C53.0753 8.888 53.4413 9.032 53.7293 9.32C54.0293 9.596 54.1793 9.944 54.1793 10.364C54.1793 10.784 54.0293 11.138 53.7293 11.426C53.4413 11.702 53.0753 11.84 52.6313 11.84ZM53.8733 13.028V23H51.3533V13.028H53.8733ZM59.2971 15.098V19.922C59.2971 20.258 59.3751 20.504 59.5311 20.66C59.6991 20.804 59.9751 20.876 60.3591 20.876H61.5291V23H59.9451C57.8211 23 56.7591 21.968 56.7591 19.904V15.098H55.5711V13.028H56.7591V10.562H59.2971V13.028H61.5291V15.098H59.2971ZM62.6936 17.978C62.6936 16.97 62.8916 16.076 63.2876 15.296C63.6956 14.516 64.2416 13.916 64.9256 13.496C65.6216 13.076 66.3956 12.866 67.2476 12.866C67.9916 12.866 68.6396 13.016 69.1916 13.316C69.7556 13.616 70.2056 13.994 70.5416 14.45V13.028H73.0796V23H70.5416V21.542C70.2176 22.01 69.7676 22.4 69.1916 22.712C68.6276 23.012 67.9736 23.162 67.2296 23.162C66.3896 23.162 65.6216 22.946 64.9256 22.514C64.2416 22.082 63.6956 21.476 63.2876 20.696C62.8916 19.904 62.6936 18.998 62.6936 17.978ZM70.5416 18.014C70.5416 17.402 70.4216 16.88 70.1816 16.448C69.9416 16.004 69.6176 15.668 69.2096 15.44C68.8016 15.2 68.3636 15.08 67.8956 15.08C67.4276 15.08 66.9956 15.194 66.5996 15.422C66.2036 15.65 65.8796 15.986 65.6276 16.43C65.3876 16.862 65.2676 17.378 65.2676 17.978C65.2676 18.578 65.3876 19.106 65.6276 19.562C65.8796 20.006 66.2036 20.348 66.5996 20.588C67.0076 20.828 67.4396 20.948 67.8956 20.948C68.3636 20.948 68.8016 20.834 69.2096 20.606C69.6176 20.366 69.9416 20.03 70.1816 19.598C70.4216 19.154 70.5416 18.626 70.5416 18.014ZM78.0608 9.68V23H75.5408V9.68H78.0608Z" fill="white"/>
<path d="M88.334 23L83.762 17.402V23H81.242V10.436H83.762V16.07L88.334 10.436H91.376L86.192 16.664L91.52 23H88.334ZM92.5295 17.978C92.5295 16.97 92.7275 16.076 93.1235 15.296C93.5315 14.516 94.0775 13.916 94.7615 13.496C95.4575 13.076 96.2315 12.866 97.0835 12.866C97.8275 12.866 98.4755 13.016 99.0275 13.316C99.5915 13.616 100.042 13.994 100.378 14.45V13.028H102.916V23H100.378V21.542C100.054 22.01 99.6035 22.4 99.0275 22.712C98.4635 23.012 97.8095 23.162 97.0655 23.162C96.2255 23.162 95.4575 22.946 94.7615 22.514C94.0775 22.082 93.5315 21.476 93.1235 20.696C92.7275 19.904 92.5295 18.998 92.5295 17.978ZM100.378 18.014C100.378 17.402 100.258 16.88 100.018 16.448C99.7775 16.004 99.4535 15.668 99.0455 15.44C98.6375 15.2 98.1995 15.08 97.7315 15.08C97.2635 15.08 96.8315 15.194 96.4355 15.422C96.0395 15.65 95.7155 15.986 95.4635 16.43C95.2235 16.862 95.1035 17.378 95.1035 17.978C95.1035 18.578 95.2235 19.106 95.4635 19.562C95.7155 20.006 96.0395 20.348 96.4355 20.588C96.8435 20.828 97.2755 20.948 97.7315 20.948C98.1995 20.948 98.6375 20.834 99.0455 20.606C99.4535 20.366 99.7775 20.03 100.018 19.598C100.258 19.154 100.378 18.626 100.378 18.014ZM107.897 14.576C108.221 14.048 108.641 13.634 109.157 13.334C109.685 13.034 110.285 12.884 110.957 12.884V15.53H110.291C109.499 15.53 108.899 15.716 108.491 16.088C108.095 16.46 107.897 17.108 107.897 18.032V23H105.377V13.028H107.897V14.576ZM122.194 13.028L116.02 27.716H113.338L115.498 22.748L111.502 13.028H114.328L116.902 19.994L119.512 13.028H122.194ZM122.905 17.978C122.905 16.97 123.103 16.076 123.499 15.296C123.907 14.516 124.453 13.916 125.137 13.496C125.833 13.076 126.607 12.866 127.459 12.866C128.203 12.866 128.851 13.016 129.403 13.316C129.967 13.616 130.417 13.994 130.753 14.45V13.028H133.291V23H130.753V21.542C130.429 22.01 129.979 22.4 129.403 22.712C128.839 23.012 128.185 23.162 127.441 23.162C126.601 23.162 125.833 22.946 125.137 22.514C124.453 22.082 123.907 21.476 123.499 20.696C123.103 19.904 122.905 18.998 122.905 17.978ZM130.753 18.014C130.753 17.402 130.633 16.88 130.393 16.448C130.153 16.004 129.829 15.668 129.421 15.44C129.013 15.2 128.575 15.08 128.107 15.08C127.639 15.08 127.207 15.194 126.811 15.422C126.415 15.65 126.091 15.986 125.839 16.43C125.599 16.862 125.479 17.378 125.479 17.978C125.479 18.578 125.599 19.106 125.839 19.562C126.091 20.006 126.415 20.348 126.811 20.588C127.219 20.828 127.651 20.948 128.107 20.948C128.575 20.948 129.013 20.834 129.421 20.606C129.829 20.366 130.153 20.03 130.393 19.598C130.633 19.154 130.753 18.626 130.753 18.014Z" fill="url(#paint0_linear_1_15)"/>
<path fill-rule="evenodd" clip-rule="evenodd" d="M6.12293 30.7821C4.18173 31.5861 2.10115 32 0 32V21H2.90909V18L3.95455 16.6364L6.56818 21H10.3409L6.31818 14.5455L10.25 9.36364H6.56818L3.06818 14.0682H2.90909V9.36364H0V0C2.10115 0 4.18173 0.413852 6.12293 1.21793C8.06414 2.022 9.82797 3.20055 11.3137 4.68629C12.7994 6.17203 13.978 7.93586 14.7821 9.87706C15.5861 11.8183 16 13.8989 16 16C16 18.1012 15.5861 20.1817 14.7821 22.1229C13.978 24.0641 12.7994 25.828 11.3137 27.3137C9.82797 28.7994 8.06414 29.978 6.12293 30.7821Z" fill="url(#paint1_linear_1_15)"/>
<defs>
<linearGradient id="paint0_linear_1_15" x1="107.5" y1="3" x2="107.5" y2="30" gradientUnits="userSpaceOnUse">
<stop stop-color="white"/>
<stop offset="0.61" stop-color="#7643F3"/>
<stop offset="1" stop-color="#8557F4"/>
</linearGradient>
<linearGradient id="paint1_linear_1_15" x1="0" y1="0" x2="0" y2="32" gradientUnits="userSpaceOnUse">
<stop stop-color="#E5C1FF"/>
<stop offset="0.76" stop-color="#7137FF"/>
</linearGradient>
</defs>
</svg>
