<svg width="33" height="32" viewBox="0 0 33 32" fill="none" xmlns="http://www.w3.org/2000/svg">
<path d="M31.9966 0.931172C31.1963 0.109757 30.0118 -0.196261 28.9074 0.125863L3.15282 7.61524C1.98754 7.93897 1.1616 8.8683 0.939113 10.0489C0.71182 11.2504 1.50574 12.7757 2.54297 13.4135L10.5959 18.3629C11.4218 18.8702 12.4878 18.743 13.1713 18.0537L22.3927 8.77488C22.8569 8.2917 23.6252 8.2917 24.0894 8.77488C24.5536 9.24196 24.5536 9.99895 24.0894 10.4821L14.852 19.7625C14.1669 20.4503 14.0389 21.5213 14.5431 22.3524L19.4635 30.486C20.0397 31.4524 21.0321 32 22.1206 32C22.2486 32 22.3927 32 22.5207 31.9839C23.7693 31.8228 24.7617 30.9692 25.1298 29.7612L32.7649 4.03967C33.1011 2.94445 32.797 1.75259 31.9966 0.931172Z" fill="#7137FF"/>
</svg>
