<svg width="29" height="32" viewBox="0 0 29 32" fill="none" xmlns="http://www.w3.org/2000/svg">
<path fill-rule="evenodd" clip-rule="evenodd" d="M14.0649 31.8619C14.2421 31.9544 14.4402 32.0015 14.6384 31.9999C14.8365 31.9984 15.033 31.9497 15.2118 31.8556L20.9204 28.8039C22.5392 27.941 23.8069 26.9761 24.7959 25.8527C26.9463 23.4051 28.1206 20.2813 28.0997 17.0602L28.032 6.43517C28.0256 5.21138 27.2218 4.11938 26.033 3.72243L15.4131 0.159303C14.7737 -0.0572149 14.073 -0.052508 13.4448 0.170286L2.86516 3.8605C1.68284 4.27314 0.893559 5.37298 0.900003 6.59834L0.967655 17.2155C0.988595 20.4413 2.20312 23.551 4.38895 25.9735C5.38764 27.0812 6.6666 28.032 8.30315 28.8808L14.0649 31.8619ZM12.5537 19.3743C12.7921 19.6034 13.1014 19.7163 13.4106 19.7132C13.7199 19.7116 14.0276 19.5955 14.2627 19.3633L20.5013 13.213C20.97 12.7501 20.9652 12.0064 20.4916 11.5498C20.0164 11.0933 19.2513 11.0964 18.7826 11.5593L13.3929 16.8718L11.1861 14.7505C10.711 14.294 9.94745 14.2987 9.4771 14.7615C9.00837 15.2244 9.0132 15.9681 9.48838 16.4246L12.5537 19.3743Z" fill="#7137FF"/>
</svg>
